<svg viewBox="0 0 720 420" xmlns="http://www.w3.org/2000/svg">
  <defs>
    <linearGradient id="bps-frame" x1="360" y1="8" x2="360" y2="412" gradientUnits="userSpaceOnUse">
      <stop offset="0" stop-color="#faedc2"/>
      <stop offset="0.16" stop-color="#d8bc72"/>
      <stop offset="0.46" stop-color="#8f652a"/>
      <stop offset="0.78" stop-color="#caa053"/>
      <stop offset="1" stop-color="#603d17"/>
    </linearGradient>
    <linearGradient id="bps-lip" x1="360" y1="44" x2="360" y2="376" gradientUnits="userSpaceOnUse">
      <stop offset="0" stop-color="#fff7d9" stop-opacity="0.76"/>
      <stop offset="0.5" stop-color="#f0d79a" stop-opacity="0.18"/>
      <stop offset="1" stop-color="#6b471c" stop-opacity="0.46"/>
    </linearGradient>
    <linearGradient id="bps-core-sheen" x1="360" y1="44" x2="360" y2="376" gradientUnits="userSpaceOnUse">
      <stop offset="0" stop-color="#fff7d4" stop-opacity="0.14"/>
      <stop offset="0.22" stop-color="#fff7d4" stop-opacity="0.03"/>
      <stop offset="0.68" stop-color="#000000" stop-opacity="0.08"/>
      <stop offset="1" stop-color="#000000" stop-opacity="0.18"/>
    </linearGradient>
  </defs>

  <path
    d="M72 30H292L330 10H390L428 30H648L694 76V344L648 390H428L390 410H330L292 390H72L26 344V76L72 30Z"
    fill="#0f0a09"
    opacity="0.68"
    transform="translate(0 10)"
  />
  <path
    d="M72 20H292L330 0H390L428 20H648L694 66V334L648 380H428L390 400H330L292 380H72L26 334V66L72 20Z"
    fill="url(#bps-frame)"
    stroke="#f6e7b0"
    stroke-linejoin="round"
    stroke-width="4"
  />
  <path
    d="M114 54H302L336 36H384L418 54H606L660 108V292L606 346H418L384 364H336L302 346H114L60 292V108L114 54Z"
    fill="url(#bps-core-sheen)"
    stroke="url(#bps-lip)"
    stroke-linejoin="round"
    stroke-width="3"
  />

  <g fill="#f3d98d" opacity="0.94">
    <circle cx="136" cy="40" r="8"/>
    <circle cx="182" cy="30" r="6"/>
    <circle cx="538" cy="30" r="6"/>
    <circle cx="584" cy="40" r="8"/>
    <circle cx="136" cy="360" r="8"/>
    <circle cx="182" cy="370" r="6"/>
    <circle cx="538" cy="370" r="6"/>
    <circle cx="584" cy="360" r="8"/>
  </g>

  <path d="M330 16H390L404 28H316L330 16Z" fill="#fff4cd" opacity="0.94"/>
  <path d="M330 384H390L404 372H316L330 384Z" fill="#825922" opacity="0.9"/>
  <path d="M96 88L124 112L96 136L74 112L96 88Z" fill="#f0cf7a" opacity="0.84"/>
  <path d="M624 88L646 112L624 136L596 112L624 88Z" fill="#f0cf7a" opacity="0.84"/>
  <path d="M142 210H578" fill="none" opacity="0.3" stroke="#f4e1a3" stroke-dasharray="1 18" stroke-linecap="round" stroke-width="8"/>
</svg>
