<svg viewBox="0 0 600 170" xmlns="http://www.w3.org/2000/svg">
  <defs>
    <linearGradient id="ts-frame" x1="300" y1="10" x2="300" y2="160" gradientUnits="userSpaceOnUse">
      <stop offset="0" stop-color="#f6e8b6"/>
      <stop offset="0.24" stop-color="#cfb262"/>
      <stop offset="0.52" stop-color="#8f6324"/>
      <stop offset="0.82" stop-color="#bd9348"/>
      <stop offset="1" stop-color="#5a3917"/>
    </linearGradient>
    <linearGradient id="ts-core" x1="300" y1="34" x2="300" y2="142" gradientUnits="userSpaceOnUse">
      <stop offset="0" stop-color="#1e2e53"/>
      <stop offset="0.32" stop-color="#284271"/>
      <stop offset="0.58" stop-color="#141b29"/>
      <stop offset="1" stop-color="#0c1017"/>
    </linearGradient>
  </defs>

  <path
    d="M68 22H232L282 6H318L368 22H532L578 58V120L532 154H68L22 120V58L68 22Z"
    fill="#100b0a"
    opacity="0.68"
    transform="translate(0 8)"
  />
  <path
    d="M68 14H232L282 0H318L368 14H532L578 50V112L532 146H68L22 112V50L68 14Z"
    fill="url(#ts-frame)"
    stroke="#f5e3a6"
    stroke-linejoin="round"
    stroke-width="4"
  />
  <path
    d="M100 40H242L288 26H312L358 40H500L544 72V96L500 120H100L56 96V72L100 40Z"
    fill="url(#ts-core)"
    stroke="#f8efc8"
    stroke-opacity="0.5"
    stroke-linejoin="round"
    stroke-width="2.5"
  />

  <g fill="#f2d98b" opacity="0.96">
    <circle cx="122" cy="28" r="6"/>
    <circle cx="478" cy="28" r="6"/>
    <circle cx="300" cy="16" r="8"/>
  </g>
</svg>
