<svg viewBox="0 0 400 240" xmlns="http://www.w3.org/2000/svg">
  <defs>
    <linearGradient id="ticketGradient" x1="0%" y1="0%" x2="0%" y2="100%">
      <stop offset="0%" style="stop-color:#00D4FF;stop-opacity:1" />
      <stop offset="100%" style="stop-color:#007AFF;stop-opacity:1" />
    </linearGradient>
    <linearGradient id="innerBevel" x1="0%" y1="0%" x2="0%" y2="100%">
      <stop offset="0%" style="stop-color:#FFFFFF;stop-opacity:0.6" />
      <stop offset="100%" style="stop-color:#00E0FF;stop-opacity:0.2" />
    </linearGradient>
    <filter id="depth" x="-10%" y="-10%" width="120%" height="120%">
      <feDropShadow dx="0" dy="6" stdDeviation="0" flood-color="#002266" />
    </filter>
  </defs>
  <path
    filter="url(#depth)"
    d="
      M 60,30
      H 340
      A 30,30 0 0 1 370,60
      V 75 A 12,12 0 0 0 370,100
      V 115 A 12,12 0 0 0 370,140
      V 155 A 12,12 0 0 0 370,180
      V 190 A 30,30 0 0 1 340,220
      H 60
      A 30,30 0 0 1 30,190
      V 180 A 12,12 0 0 0 30,155
      V 140 A 12,12 0 0 0 30,115
      V 100 A 12,12 0 0 0 30,75
      V 60 A 30,30 0 0 1 60,30 Z"
    fill="url(#ticketGradient)"
    stroke="#001133"
    stroke-width="3"
  />
  <path
    d="
      M 70,45
      H 330
      A 20,20 0 0 1 350,65
      V 80 A 10,10 0 0 0 350,100
      V 115 A 10,10 0 0 0 350,135
      V 155 A 10,10 0 0 0 350,175
      V 185 A 20,20 0 0 1 330,205
      H 70
      A 20,20 0 0 1 50,185
      V 175 A 10,10 0 0 0 50,155
      V 135 A 10,10 0 0 0 50,115
      V 100 A 10,10 0 0 0 50,80
      V 65 A 20,20 0 0 1 70,45 Z"
    fill="none"
    stroke="url(#innerBevel)"
    stroke-width="4"
    opacity="0.8"
  />
  <path
    d="M 65,35 H 335 A 25,25 0 0 1 360,60 L 350,70 H 55 L 45,60 A 25,25 0 0 1 65,35 Z"
    fill="white"
    opacity="0.3"
  />
  <path
    d="M 280,30 L 370,120 V 150 L 300,220 H 220 L 370,70 V 30 Z"
    fill="white"
    opacity="0.1"
  />
</svg>
